<mxfile host="Electron" modified="2023-11-30T13:13:45.531Z" agent="Mozilla/5.0 (Windows NT 10.0; Win64; x64) AppleWebKit/537.36 (KHTML, like Gecko) draw.io/21.1.2 Chrome/106.0.5249.199 Electron/21.4.3 Safari/537.36" etag="stuUAGMMXiNwn8Az5_C6" version="21.1.2" type="device" pages="2">
  <diagram name="UI" id="0Axz9jzK59ZMNBtY-DP3">
    <mxGraphModel dx="1589" dy="1040" grid="1" gridSize="10" guides="1" tooltips="1" connect="1" arrows="1" fold="1" page="1" pageScale="1" pageWidth="1169" pageHeight="827" math="0" shadow="0">
      <root>
        <mxCell id="0" />
        <mxCell id="1" parent="0" />
        <mxCell id="H0fFJmVWNEBMFpfulteh-69" value="" style="shape=table;startSize=0;container=1;collapsible=0;childLayout=tableLayout;fontSize=16;strokeWidth=1;" vertex="1" parent="1">
          <mxGeometry x="613" y="433" width="530" height="327" as="geometry" />
        </mxCell>
        <mxCell id="H0fFJmVWNEBMFpfulteh-105" style="shape=tableRow;horizontal=0;startSize=0;swimlaneHead=0;swimlaneBody=0;strokeColor=inherit;top=0;left=0;bottom=0;right=0;collapsible=0;dropTarget=0;fillColor=none;points=[[0,0.5],[1,0.5]];portConstraint=eastwest;fontSize=16;" vertex="1" parent="H0fFJmVWNEBMFpfulteh-69">
          <mxGeometry width="530" height="56" as="geometry" />
        </mxCell>
        <mxCell id="H0fFJmVWNEBMFpfulteh-106" value="name / date" style="shape=partialRectangle;html=1;whiteSpace=wrap;connectable=0;strokeColor=inherit;overflow=hidden;fillColor=none;top=0;left=0;bottom=0;right=0;pointerEvents=1;fontSize=16;" vertex="1" parent="H0fFJmVWNEBMFpfulteh-105">
          <mxGeometry width="84" height="56" as="geometry">
            <mxRectangle width="84" height="56" as="alternateBounds" />
          </mxGeometry>
        </mxCell>
        <mxCell id="H0fFJmVWNEBMFpfulteh-107" value="01.01" style="shape=partialRectangle;html=1;whiteSpace=wrap;connectable=0;strokeColor=inherit;overflow=hidden;fillColor=none;top=0;left=0;bottom=0;right=0;pointerEvents=1;fontSize=16;" vertex="1" parent="H0fFJmVWNEBMFpfulteh-105">
          <mxGeometry x="84" width="46" height="56" as="geometry">
            <mxRectangle width="46" height="56" as="alternateBounds" />
          </mxGeometry>
        </mxCell>
        <mxCell id="H0fFJmVWNEBMFpfulteh-108" value="02.01" style="shape=partialRectangle;html=1;whiteSpace=wrap;connectable=0;strokeColor=inherit;overflow=hidden;fillColor=none;top=0;left=0;bottom=0;right=0;pointerEvents=1;fontSize=16;" vertex="1" parent="H0fFJmVWNEBMFpfulteh-105">
          <mxGeometry x="130" width="50" height="56" as="geometry">
            <mxRectangle width="50" height="56" as="alternateBounds" />
          </mxGeometry>
        </mxCell>
        <mxCell id="H0fFJmVWNEBMFpfulteh-109" value="03.01" style="shape=partialRectangle;html=1;whiteSpace=wrap;connectable=0;strokeColor=inherit;overflow=hidden;fillColor=none;top=0;left=0;bottom=0;right=0;pointerEvents=1;fontSize=16;" vertex="1" parent="H0fFJmVWNEBMFpfulteh-105">
          <mxGeometry x="180" width="50" height="56" as="geometry">
            <mxRectangle width="50" height="56" as="alternateBounds" />
          </mxGeometry>
        </mxCell>
        <mxCell id="H0fFJmVWNEBMFpfulteh-110" value="04.01" style="shape=partialRectangle;html=1;whiteSpace=wrap;connectable=0;strokeColor=inherit;overflow=hidden;fillColor=none;top=0;left=0;bottom=0;right=0;pointerEvents=1;fontSize=16;" vertex="1" parent="H0fFJmVWNEBMFpfulteh-105">
          <mxGeometry x="230" width="50" height="56" as="geometry">
            <mxRectangle width="50" height="56" as="alternateBounds" />
          </mxGeometry>
        </mxCell>
        <mxCell id="H0fFJmVWNEBMFpfulteh-111" value="05.01" style="shape=partialRectangle;html=1;whiteSpace=wrap;connectable=0;strokeColor=inherit;overflow=hidden;fillColor=none;top=0;left=0;bottom=0;right=0;pointerEvents=1;fontSize=16;" vertex="1" parent="H0fFJmVWNEBMFpfulteh-105">
          <mxGeometry x="280" width="50" height="56" as="geometry">
            <mxRectangle width="50" height="56" as="alternateBounds" />
          </mxGeometry>
        </mxCell>
        <mxCell id="1X2aNfDdhctrhxc6HK5E-7" value="06.01" style="shape=partialRectangle;html=1;whiteSpace=wrap;connectable=0;strokeColor=inherit;overflow=hidden;fillColor=none;top=0;left=0;bottom=0;right=0;pointerEvents=1;fontSize=16;" vertex="1" parent="H0fFJmVWNEBMFpfulteh-105">
          <mxGeometry x="330" width="50" height="56" as="geometry">
            <mxRectangle width="50" height="56" as="alternateBounds" />
          </mxGeometry>
        </mxCell>
        <mxCell id="1X2aNfDdhctrhxc6HK5E-129" value="07.01" style="shape=partialRectangle;html=1;whiteSpace=wrap;connectable=0;strokeColor=inherit;overflow=hidden;fillColor=none;top=0;left=0;bottom=0;right=0;pointerEvents=1;fontSize=16;" vertex="1" parent="H0fFJmVWNEBMFpfulteh-105">
          <mxGeometry x="380" width="50" height="56" as="geometry">
            <mxRectangle width="50" height="56" as="alternateBounds" />
          </mxGeometry>
        </mxCell>
        <mxCell id="1X2aNfDdhctrhxc6HK5E-135" value="08.01" style="shape=partialRectangle;html=1;whiteSpace=wrap;connectable=0;strokeColor=inherit;overflow=hidden;fillColor=none;top=0;left=0;bottom=0;right=0;pointerEvents=1;fontSize=16;" vertex="1" parent="H0fFJmVWNEBMFpfulteh-105">
          <mxGeometry x="430" width="50" height="56" as="geometry">
            <mxRectangle width="50" height="56" as="alternateBounds" />
          </mxGeometry>
        </mxCell>
        <mxCell id="1X2aNfDdhctrhxc6HK5E-141" value="09.01" style="shape=partialRectangle;html=1;whiteSpace=wrap;connectable=0;strokeColor=inherit;overflow=hidden;fillColor=none;top=0;left=0;bottom=0;right=0;pointerEvents=1;fontSize=16;" vertex="1" parent="H0fFJmVWNEBMFpfulteh-105">
          <mxGeometry x="480" width="50" height="56" as="geometry">
            <mxRectangle width="50" height="56" as="alternateBounds" />
          </mxGeometry>
        </mxCell>
        <mxCell id="H0fFJmVWNEBMFpfulteh-98" style="shape=tableRow;horizontal=0;startSize=0;swimlaneHead=0;swimlaneBody=0;strokeColor=inherit;top=0;left=0;bottom=0;right=0;collapsible=0;dropTarget=0;fillColor=none;points=[[0,0.5],[1,0.5]];portConstraint=eastwest;fontSize=16;" vertex="1" parent="H0fFJmVWNEBMFpfulteh-69">
          <mxGeometry y="56" width="530" height="31" as="geometry" />
        </mxCell>
        <mxCell id="H0fFJmVWNEBMFpfulteh-99" value="1. John" style="shape=partialRectangle;html=1;whiteSpace=wrap;connectable=0;strokeColor=inherit;overflow=hidden;fillColor=none;top=0;left=0;bottom=0;right=0;pointerEvents=1;fontSize=16;align=left;" vertex="1" parent="H0fFJmVWNEBMFpfulteh-98">
          <mxGeometry width="84" height="31" as="geometry">
            <mxRectangle width="84" height="31" as="alternateBounds" />
          </mxGeometry>
        </mxCell>
        <mxCell id="H0fFJmVWNEBMFpfulteh-100" value="2S" style="shape=partialRectangle;html=1;whiteSpace=wrap;connectable=0;strokeColor=inherit;overflow=hidden;fillColor=none;top=0;left=0;bottom=0;right=0;pointerEvents=1;fontSize=16;" vertex="1" parent="H0fFJmVWNEBMFpfulteh-98">
          <mxGeometry x="84" width="46" height="31" as="geometry">
            <mxRectangle width="46" height="31" as="alternateBounds" />
          </mxGeometry>
        </mxCell>
        <mxCell id="H0fFJmVWNEBMFpfulteh-101" style="shape=partialRectangle;html=1;whiteSpace=wrap;connectable=0;strokeColor=inherit;overflow=hidden;fillColor=none;top=0;left=0;bottom=0;right=0;pointerEvents=1;fontSize=16;" vertex="1" parent="H0fFJmVWNEBMFpfulteh-98">
          <mxGeometry x="130" width="50" height="31" as="geometry">
            <mxRectangle width="50" height="31" as="alternateBounds" />
          </mxGeometry>
        </mxCell>
        <mxCell id="H0fFJmVWNEBMFpfulteh-102" value="4I" style="shape=partialRectangle;html=1;whiteSpace=wrap;connectable=0;strokeColor=inherit;overflow=hidden;fillColor=none;top=0;left=0;bottom=0;right=0;pointerEvents=1;fontSize=16;" vertex="1" parent="H0fFJmVWNEBMFpfulteh-98">
          <mxGeometry x="180" width="50" height="31" as="geometry">
            <mxRectangle width="50" height="31" as="alternateBounds" />
          </mxGeometry>
        </mxCell>
        <mxCell id="H0fFJmVWNEBMFpfulteh-103" style="shape=partialRectangle;html=1;whiteSpace=wrap;connectable=0;strokeColor=inherit;overflow=hidden;fillColor=none;top=0;left=0;bottom=0;right=0;pointerEvents=1;fontSize=16;" vertex="1" parent="H0fFJmVWNEBMFpfulteh-98">
          <mxGeometry x="230" width="50" height="31" as="geometry">
            <mxRectangle width="50" height="31" as="alternateBounds" />
          </mxGeometry>
        </mxCell>
        <mxCell id="H0fFJmVWNEBMFpfulteh-104" style="shape=partialRectangle;html=1;whiteSpace=wrap;connectable=0;strokeColor=inherit;overflow=hidden;fillColor=none;top=0;left=0;bottom=0;right=0;pointerEvents=1;fontSize=16;" vertex="1" parent="H0fFJmVWNEBMFpfulteh-98">
          <mxGeometry x="280" width="50" height="31" as="geometry">
            <mxRectangle width="50" height="31" as="alternateBounds" />
          </mxGeometry>
        </mxCell>
        <mxCell id="1X2aNfDdhctrhxc6HK5E-8" style="shape=partialRectangle;html=1;whiteSpace=wrap;connectable=0;strokeColor=inherit;overflow=hidden;fillColor=none;top=0;left=0;bottom=0;right=0;pointerEvents=1;fontSize=16;" vertex="1" parent="H0fFJmVWNEBMFpfulteh-98">
          <mxGeometry x="330" width="50" height="31" as="geometry">
            <mxRectangle width="50" height="31" as="alternateBounds" />
          </mxGeometry>
        </mxCell>
        <mxCell id="1X2aNfDdhctrhxc6HK5E-130" style="shape=partialRectangle;html=1;whiteSpace=wrap;connectable=0;strokeColor=inherit;overflow=hidden;fillColor=none;top=0;left=0;bottom=0;right=0;pointerEvents=1;fontSize=16;" vertex="1" parent="H0fFJmVWNEBMFpfulteh-98">
          <mxGeometry x="380" width="50" height="31" as="geometry">
            <mxRectangle width="50" height="31" as="alternateBounds" />
          </mxGeometry>
        </mxCell>
        <mxCell id="1X2aNfDdhctrhxc6HK5E-136" style="shape=partialRectangle;html=1;whiteSpace=wrap;connectable=0;strokeColor=inherit;overflow=hidden;fillColor=none;top=0;left=0;bottom=0;right=0;pointerEvents=1;fontSize=16;" vertex="1" parent="H0fFJmVWNEBMFpfulteh-98">
          <mxGeometry x="430" width="50" height="31" as="geometry">
            <mxRectangle width="50" height="31" as="alternateBounds" />
          </mxGeometry>
        </mxCell>
        <mxCell id="1X2aNfDdhctrhxc6HK5E-142" style="shape=partialRectangle;html=1;whiteSpace=wrap;connectable=0;strokeColor=inherit;overflow=hidden;fillColor=none;top=0;left=0;bottom=0;right=0;pointerEvents=1;fontSize=16;" vertex="1" parent="H0fFJmVWNEBMFpfulteh-98">
          <mxGeometry x="480" width="50" height="31" as="geometry">
            <mxRectangle width="50" height="31" as="alternateBounds" />
          </mxGeometry>
        </mxCell>
        <mxCell id="H0fFJmVWNEBMFpfulteh-91" style="shape=tableRow;horizontal=0;startSize=0;swimlaneHead=0;swimlaneBody=0;strokeColor=inherit;top=0;left=0;bottom=0;right=0;collapsible=0;dropTarget=0;fillColor=none;points=[[0,0.5],[1,0.5]];portConstraint=eastwest;fontSize=16;" vertex="1" parent="H0fFJmVWNEBMFpfulteh-69">
          <mxGeometry y="87" width="530" height="30" as="geometry" />
        </mxCell>
        <mxCell id="H0fFJmVWNEBMFpfulteh-92" value="2. Maria" style="shape=partialRectangle;html=1;whiteSpace=wrap;connectable=0;strokeColor=inherit;overflow=hidden;fillColor=none;top=0;left=0;bottom=0;right=0;pointerEvents=1;fontSize=16;align=left;" vertex="1" parent="H0fFJmVWNEBMFpfulteh-91">
          <mxGeometry width="84" height="30" as="geometry">
            <mxRectangle width="84" height="30" as="alternateBounds" />
          </mxGeometry>
        </mxCell>
        <mxCell id="H0fFJmVWNEBMFpfulteh-93" style="shape=partialRectangle;html=1;whiteSpace=wrap;connectable=0;strokeColor=inherit;overflow=hidden;fillColor=none;top=0;left=0;bottom=0;right=0;pointerEvents=1;fontSize=16;" vertex="1" parent="H0fFJmVWNEBMFpfulteh-91">
          <mxGeometry x="84" width="46" height="30" as="geometry">
            <mxRectangle width="46" height="30" as="alternateBounds" />
          </mxGeometry>
        </mxCell>
        <mxCell id="H0fFJmVWNEBMFpfulteh-94" value="2S" style="shape=partialRectangle;html=1;whiteSpace=wrap;connectable=0;strokeColor=inherit;overflow=hidden;fillColor=none;top=0;left=0;bottom=0;right=0;pointerEvents=1;fontSize=16;" vertex="1" parent="H0fFJmVWNEBMFpfulteh-91">
          <mxGeometry x="130" width="50" height="30" as="geometry">
            <mxRectangle width="50" height="30" as="alternateBounds" />
          </mxGeometry>
        </mxCell>
        <mxCell id="H0fFJmVWNEBMFpfulteh-95" style="shape=partialRectangle;html=1;whiteSpace=wrap;connectable=0;strokeColor=inherit;overflow=hidden;fillColor=none;top=0;left=0;bottom=0;right=0;pointerEvents=1;fontSize=16;" vertex="1" parent="H0fFJmVWNEBMFpfulteh-91">
          <mxGeometry x="180" width="50" height="30" as="geometry">
            <mxRectangle width="50" height="30" as="alternateBounds" />
          </mxGeometry>
        </mxCell>
        <mxCell id="H0fFJmVWNEBMFpfulteh-96" value="5V" style="shape=partialRectangle;html=1;whiteSpace=wrap;connectable=0;strokeColor=inherit;overflow=hidden;fillColor=none;top=0;left=0;bottom=0;right=0;pointerEvents=1;fontSize=16;" vertex="1" parent="H0fFJmVWNEBMFpfulteh-91">
          <mxGeometry x="230" width="50" height="30" as="geometry">
            <mxRectangle width="50" height="30" as="alternateBounds" />
          </mxGeometry>
        </mxCell>
        <mxCell id="H0fFJmVWNEBMFpfulteh-97" style="shape=partialRectangle;html=1;whiteSpace=wrap;connectable=0;strokeColor=inherit;overflow=hidden;fillColor=none;top=0;left=0;bottom=0;right=0;pointerEvents=1;fontSize=16;" vertex="1" parent="H0fFJmVWNEBMFpfulteh-91">
          <mxGeometry x="280" width="50" height="30" as="geometry">
            <mxRectangle width="50" height="30" as="alternateBounds" />
          </mxGeometry>
        </mxCell>
        <mxCell id="1X2aNfDdhctrhxc6HK5E-9" style="shape=partialRectangle;html=1;whiteSpace=wrap;connectable=0;strokeColor=inherit;overflow=hidden;fillColor=none;top=0;left=0;bottom=0;right=0;pointerEvents=1;fontSize=16;" vertex="1" parent="H0fFJmVWNEBMFpfulteh-91">
          <mxGeometry x="330" width="50" height="30" as="geometry">
            <mxRectangle width="50" height="30" as="alternateBounds" />
          </mxGeometry>
        </mxCell>
        <mxCell id="1X2aNfDdhctrhxc6HK5E-131" style="shape=partialRectangle;html=1;whiteSpace=wrap;connectable=0;strokeColor=inherit;overflow=hidden;fillColor=none;top=0;left=0;bottom=0;right=0;pointerEvents=1;fontSize=16;" vertex="1" parent="H0fFJmVWNEBMFpfulteh-91">
          <mxGeometry x="380" width="50" height="30" as="geometry">
            <mxRectangle width="50" height="30" as="alternateBounds" />
          </mxGeometry>
        </mxCell>
        <mxCell id="1X2aNfDdhctrhxc6HK5E-137" style="shape=partialRectangle;html=1;whiteSpace=wrap;connectable=0;strokeColor=inherit;overflow=hidden;fillColor=none;top=0;left=0;bottom=0;right=0;pointerEvents=1;fontSize=16;" vertex="1" parent="H0fFJmVWNEBMFpfulteh-91">
          <mxGeometry x="430" width="50" height="30" as="geometry">
            <mxRectangle width="50" height="30" as="alternateBounds" />
          </mxGeometry>
        </mxCell>
        <mxCell id="1X2aNfDdhctrhxc6HK5E-143" style="shape=partialRectangle;html=1;whiteSpace=wrap;connectable=0;strokeColor=inherit;overflow=hidden;fillColor=none;top=0;left=0;bottom=0;right=0;pointerEvents=1;fontSize=16;" vertex="1" parent="H0fFJmVWNEBMFpfulteh-91">
          <mxGeometry x="480" width="50" height="30" as="geometry">
            <mxRectangle width="50" height="30" as="alternateBounds" />
          </mxGeometry>
        </mxCell>
        <mxCell id="H0fFJmVWNEBMFpfulteh-70" value="" style="shape=tableRow;horizontal=0;startSize=0;swimlaneHead=0;swimlaneBody=0;strokeColor=inherit;top=0;left=0;bottom=0;right=0;collapsible=0;dropTarget=0;fillColor=none;points=[[0,0.5],[1,0.5]];portConstraint=eastwest;fontSize=16;" vertex="1" parent="H0fFJmVWNEBMFpfulteh-69">
          <mxGeometry y="117" width="530" height="30" as="geometry" />
        </mxCell>
        <mxCell id="H0fFJmVWNEBMFpfulteh-71" value="3. Boye" style="shape=partialRectangle;html=1;whiteSpace=wrap;connectable=0;strokeColor=inherit;overflow=hidden;fillColor=none;top=0;left=0;bottom=0;right=0;pointerEvents=1;fontSize=16;align=left;" vertex="1" parent="H0fFJmVWNEBMFpfulteh-70">
          <mxGeometry width="84" height="30" as="geometry">
            <mxRectangle width="84" height="30" as="alternateBounds" />
          </mxGeometry>
        </mxCell>
        <mxCell id="H0fFJmVWNEBMFpfulteh-72" value="" style="shape=partialRectangle;html=1;whiteSpace=wrap;connectable=0;strokeColor=inherit;overflow=hidden;fillColor=none;top=0;left=0;bottom=0;right=0;pointerEvents=1;fontSize=16;" vertex="1" parent="H0fFJmVWNEBMFpfulteh-70">
          <mxGeometry x="84" width="46" height="30" as="geometry">
            <mxRectangle width="46" height="30" as="alternateBounds" />
          </mxGeometry>
        </mxCell>
        <mxCell id="H0fFJmVWNEBMFpfulteh-73" value="" style="shape=partialRectangle;html=1;whiteSpace=wrap;connectable=0;strokeColor=inherit;overflow=hidden;fillColor=none;top=0;left=0;bottom=0;right=0;pointerEvents=1;fontSize=16;" vertex="1" parent="H0fFJmVWNEBMFpfulteh-70">
          <mxGeometry x="130" width="50" height="30" as="geometry">
            <mxRectangle width="50" height="30" as="alternateBounds" />
          </mxGeometry>
        </mxCell>
        <mxCell id="H0fFJmVWNEBMFpfulteh-82" style="shape=partialRectangle;html=1;whiteSpace=wrap;connectable=0;strokeColor=inherit;overflow=hidden;fillColor=none;top=0;left=0;bottom=0;right=0;pointerEvents=1;fontSize=16;" vertex="1" parent="H0fFJmVWNEBMFpfulteh-70">
          <mxGeometry x="180" width="50" height="30" as="geometry">
            <mxRectangle width="50" height="30" as="alternateBounds" />
          </mxGeometry>
        </mxCell>
        <mxCell id="H0fFJmVWNEBMFpfulteh-85" style="shape=partialRectangle;html=1;whiteSpace=wrap;connectable=0;strokeColor=inherit;overflow=hidden;fillColor=none;top=0;left=0;bottom=0;right=0;pointerEvents=1;fontSize=16;" vertex="1" parent="H0fFJmVWNEBMFpfulteh-70">
          <mxGeometry x="230" width="50" height="30" as="geometry">
            <mxRectangle width="50" height="30" as="alternateBounds" />
          </mxGeometry>
        </mxCell>
        <mxCell id="H0fFJmVWNEBMFpfulteh-88" style="shape=partialRectangle;html=1;whiteSpace=wrap;connectable=0;strokeColor=inherit;overflow=hidden;fillColor=none;top=0;left=0;bottom=0;right=0;pointerEvents=1;fontSize=16;" vertex="1" parent="H0fFJmVWNEBMFpfulteh-70">
          <mxGeometry x="280" width="50" height="30" as="geometry">
            <mxRectangle width="50" height="30" as="alternateBounds" />
          </mxGeometry>
        </mxCell>
        <mxCell id="1X2aNfDdhctrhxc6HK5E-10" value="5V" style="shape=partialRectangle;html=1;whiteSpace=wrap;connectable=0;strokeColor=inherit;overflow=hidden;fillColor=none;top=0;left=0;bottom=0;right=0;pointerEvents=1;fontSize=16;" vertex="1" parent="H0fFJmVWNEBMFpfulteh-70">
          <mxGeometry x="330" width="50" height="30" as="geometry">
            <mxRectangle width="50" height="30" as="alternateBounds" />
          </mxGeometry>
        </mxCell>
        <mxCell id="1X2aNfDdhctrhxc6HK5E-132" style="shape=partialRectangle;html=1;whiteSpace=wrap;connectable=0;strokeColor=inherit;overflow=hidden;fillColor=none;top=0;left=0;bottom=0;right=0;pointerEvents=1;fontSize=16;" vertex="1" parent="H0fFJmVWNEBMFpfulteh-70">
          <mxGeometry x="380" width="50" height="30" as="geometry">
            <mxRectangle width="50" height="30" as="alternateBounds" />
          </mxGeometry>
        </mxCell>
        <mxCell id="1X2aNfDdhctrhxc6HK5E-138" style="shape=partialRectangle;html=1;whiteSpace=wrap;connectable=0;strokeColor=inherit;overflow=hidden;fillColor=none;top=0;left=0;bottom=0;right=0;pointerEvents=1;fontSize=16;" vertex="1" parent="H0fFJmVWNEBMFpfulteh-70">
          <mxGeometry x="430" width="50" height="30" as="geometry">
            <mxRectangle width="50" height="30" as="alternateBounds" />
          </mxGeometry>
        </mxCell>
        <mxCell id="1X2aNfDdhctrhxc6HK5E-144" style="shape=partialRectangle;html=1;whiteSpace=wrap;connectable=0;strokeColor=inherit;overflow=hidden;fillColor=none;top=0;left=0;bottom=0;right=0;pointerEvents=1;fontSize=16;" vertex="1" parent="H0fFJmVWNEBMFpfulteh-70">
          <mxGeometry x="480" width="50" height="30" as="geometry">
            <mxRectangle width="50" height="30" as="alternateBounds" />
          </mxGeometry>
        </mxCell>
        <mxCell id="H0fFJmVWNEBMFpfulteh-74" value="" style="shape=tableRow;horizontal=0;startSize=0;swimlaneHead=0;swimlaneBody=0;strokeColor=inherit;top=0;left=0;bottom=0;right=0;collapsible=0;dropTarget=0;fillColor=none;points=[[0,0.5],[1,0.5]];portConstraint=eastwest;fontSize=16;" vertex="1" parent="H0fFJmVWNEBMFpfulteh-69">
          <mxGeometry y="147" width="530" height="30" as="geometry" />
        </mxCell>
        <mxCell id="H0fFJmVWNEBMFpfulteh-75" value="4. Hemulin" style="shape=partialRectangle;html=1;whiteSpace=wrap;connectable=0;strokeColor=inherit;overflow=hidden;fillColor=none;top=0;left=0;bottom=0;right=0;pointerEvents=1;fontSize=16;align=left;" vertex="1" parent="H0fFJmVWNEBMFpfulteh-74">
          <mxGeometry width="84" height="30" as="geometry">
            <mxRectangle width="84" height="30" as="alternateBounds" />
          </mxGeometry>
        </mxCell>
        <mxCell id="H0fFJmVWNEBMFpfulteh-76" value="" style="shape=partialRectangle;html=1;whiteSpace=wrap;connectable=0;strokeColor=inherit;overflow=hidden;fillColor=none;top=0;left=0;bottom=0;right=0;pointerEvents=1;fontSize=16;" vertex="1" parent="H0fFJmVWNEBMFpfulteh-74">
          <mxGeometry x="84" width="46" height="30" as="geometry">
            <mxRectangle width="46" height="30" as="alternateBounds" />
          </mxGeometry>
        </mxCell>
        <mxCell id="H0fFJmVWNEBMFpfulteh-77" value="" style="shape=partialRectangle;html=1;whiteSpace=wrap;connectable=0;strokeColor=inherit;overflow=hidden;fillColor=none;top=0;left=0;bottom=0;right=0;pointerEvents=1;fontSize=16;" vertex="1" parent="H0fFJmVWNEBMFpfulteh-74">
          <mxGeometry x="130" width="50" height="30" as="geometry">
            <mxRectangle width="50" height="30" as="alternateBounds" />
          </mxGeometry>
        </mxCell>
        <mxCell id="H0fFJmVWNEBMFpfulteh-83" style="shape=partialRectangle;html=1;whiteSpace=wrap;connectable=0;strokeColor=inherit;overflow=hidden;fillColor=none;top=0;left=0;bottom=0;right=0;pointerEvents=1;fontSize=16;" vertex="1" parent="H0fFJmVWNEBMFpfulteh-74">
          <mxGeometry x="180" width="50" height="30" as="geometry">
            <mxRectangle width="50" height="30" as="alternateBounds" />
          </mxGeometry>
        </mxCell>
        <mxCell id="H0fFJmVWNEBMFpfulteh-86" style="shape=partialRectangle;html=1;whiteSpace=wrap;connectable=0;strokeColor=inherit;overflow=hidden;fillColor=none;top=0;left=0;bottom=0;right=0;pointerEvents=1;fontSize=16;" vertex="1" parent="H0fFJmVWNEBMFpfulteh-74">
          <mxGeometry x="230" width="50" height="30" as="geometry">
            <mxRectangle width="50" height="30" as="alternateBounds" />
          </mxGeometry>
        </mxCell>
        <mxCell id="H0fFJmVWNEBMFpfulteh-89" style="shape=partialRectangle;html=1;whiteSpace=wrap;connectable=0;strokeColor=inherit;overflow=hidden;fillColor=none;top=0;left=0;bottom=0;right=0;pointerEvents=1;fontSize=16;" vertex="1" parent="H0fFJmVWNEBMFpfulteh-74">
          <mxGeometry x="280" width="50" height="30" as="geometry">
            <mxRectangle width="50" height="30" as="alternateBounds" />
          </mxGeometry>
        </mxCell>
        <mxCell id="1X2aNfDdhctrhxc6HK5E-11" style="shape=partialRectangle;html=1;whiteSpace=wrap;connectable=0;strokeColor=inherit;overflow=hidden;fillColor=none;top=0;left=0;bottom=0;right=0;pointerEvents=1;fontSize=16;" vertex="1" parent="H0fFJmVWNEBMFpfulteh-74">
          <mxGeometry x="330" width="50" height="30" as="geometry">
            <mxRectangle width="50" height="30" as="alternateBounds" />
          </mxGeometry>
        </mxCell>
        <mxCell id="1X2aNfDdhctrhxc6HK5E-133" style="shape=partialRectangle;html=1;whiteSpace=wrap;connectable=0;strokeColor=inherit;overflow=hidden;fillColor=none;top=0;left=0;bottom=0;right=0;pointerEvents=1;fontSize=16;" vertex="1" parent="H0fFJmVWNEBMFpfulteh-74">
          <mxGeometry x="380" width="50" height="30" as="geometry">
            <mxRectangle width="50" height="30" as="alternateBounds" />
          </mxGeometry>
        </mxCell>
        <mxCell id="1X2aNfDdhctrhxc6HK5E-139" style="shape=partialRectangle;html=1;whiteSpace=wrap;connectable=0;strokeColor=inherit;overflow=hidden;fillColor=none;top=0;left=0;bottom=0;right=0;pointerEvents=1;fontSize=16;" vertex="1" parent="H0fFJmVWNEBMFpfulteh-74">
          <mxGeometry x="430" width="50" height="30" as="geometry">
            <mxRectangle width="50" height="30" as="alternateBounds" />
          </mxGeometry>
        </mxCell>
        <mxCell id="1X2aNfDdhctrhxc6HK5E-145" style="shape=partialRectangle;html=1;whiteSpace=wrap;connectable=0;strokeColor=inherit;overflow=hidden;fillColor=none;top=0;left=0;bottom=0;right=0;pointerEvents=1;fontSize=16;" vertex="1" parent="H0fFJmVWNEBMFpfulteh-74">
          <mxGeometry x="480" width="50" height="30" as="geometry">
            <mxRectangle width="50" height="30" as="alternateBounds" />
          </mxGeometry>
        </mxCell>
        <mxCell id="H0fFJmVWNEBMFpfulteh-78" value="" style="shape=tableRow;horizontal=0;startSize=0;swimlaneHead=0;swimlaneBody=0;strokeColor=inherit;top=0;left=0;bottom=0;right=0;collapsible=0;dropTarget=0;fillColor=none;points=[[0,0.5],[1,0.5]];portConstraint=eastwest;fontSize=16;" vertex="1" parent="H0fFJmVWNEBMFpfulteh-69">
          <mxGeometry y="177" width="530" height="30" as="geometry" />
        </mxCell>
        <mxCell id="H0fFJmVWNEBMFpfulteh-79" value="5. My" style="shape=partialRectangle;html=1;whiteSpace=wrap;connectable=0;strokeColor=inherit;overflow=hidden;fillColor=none;top=0;left=0;bottom=0;right=0;pointerEvents=1;fontSize=16;align=left;" vertex="1" parent="H0fFJmVWNEBMFpfulteh-78">
          <mxGeometry width="84" height="30" as="geometry">
            <mxRectangle width="84" height="30" as="alternateBounds" />
          </mxGeometry>
        </mxCell>
        <mxCell id="H0fFJmVWNEBMFpfulteh-80" value="" style="shape=partialRectangle;html=1;whiteSpace=wrap;connectable=0;strokeColor=inherit;overflow=hidden;fillColor=none;top=0;left=0;bottom=0;right=0;pointerEvents=1;fontSize=16;" vertex="1" parent="H0fFJmVWNEBMFpfulteh-78">
          <mxGeometry x="84" width="46" height="30" as="geometry">
            <mxRectangle width="46" height="30" as="alternateBounds" />
          </mxGeometry>
        </mxCell>
        <mxCell id="H0fFJmVWNEBMFpfulteh-81" value="" style="shape=partialRectangle;html=1;whiteSpace=wrap;connectable=0;strokeColor=inherit;overflow=hidden;fillColor=none;top=0;left=0;bottom=0;right=0;pointerEvents=1;fontSize=16;" vertex="1" parent="H0fFJmVWNEBMFpfulteh-78">
          <mxGeometry x="130" width="50" height="30" as="geometry">
            <mxRectangle width="50" height="30" as="alternateBounds" />
          </mxGeometry>
        </mxCell>
        <mxCell id="H0fFJmVWNEBMFpfulteh-84" style="shape=partialRectangle;html=1;whiteSpace=wrap;connectable=0;strokeColor=inherit;overflow=hidden;fillColor=none;top=0;left=0;bottom=0;right=0;pointerEvents=1;fontSize=16;" vertex="1" parent="H0fFJmVWNEBMFpfulteh-78">
          <mxGeometry x="180" width="50" height="30" as="geometry">
            <mxRectangle width="50" height="30" as="alternateBounds" />
          </mxGeometry>
        </mxCell>
        <mxCell id="H0fFJmVWNEBMFpfulteh-87" value="2S" style="shape=partialRectangle;html=1;whiteSpace=wrap;connectable=0;strokeColor=inherit;overflow=hidden;fillColor=none;top=0;left=0;bottom=0;right=0;pointerEvents=1;fontSize=16;" vertex="1" parent="H0fFJmVWNEBMFpfulteh-78">
          <mxGeometry x="230" width="50" height="30" as="geometry">
            <mxRectangle width="50" height="30" as="alternateBounds" />
          </mxGeometry>
        </mxCell>
        <mxCell id="H0fFJmVWNEBMFpfulteh-90" style="shape=partialRectangle;html=1;whiteSpace=wrap;connectable=0;strokeColor=inherit;overflow=hidden;fillColor=none;top=0;left=0;bottom=0;right=0;pointerEvents=1;fontSize=16;" vertex="1" parent="H0fFJmVWNEBMFpfulteh-78">
          <mxGeometry x="280" width="50" height="30" as="geometry">
            <mxRectangle width="50" height="30" as="alternateBounds" />
          </mxGeometry>
        </mxCell>
        <mxCell id="1X2aNfDdhctrhxc6HK5E-12" style="shape=partialRectangle;html=1;whiteSpace=wrap;connectable=0;strokeColor=inherit;overflow=hidden;fillColor=none;top=0;left=0;bottom=0;right=0;pointerEvents=1;fontSize=16;" vertex="1" parent="H0fFJmVWNEBMFpfulteh-78">
          <mxGeometry x="330" width="50" height="30" as="geometry">
            <mxRectangle width="50" height="30" as="alternateBounds" />
          </mxGeometry>
        </mxCell>
        <mxCell id="1X2aNfDdhctrhxc6HK5E-134" style="shape=partialRectangle;html=1;whiteSpace=wrap;connectable=0;strokeColor=inherit;overflow=hidden;fillColor=none;top=0;left=0;bottom=0;right=0;pointerEvents=1;fontSize=16;" vertex="1" parent="H0fFJmVWNEBMFpfulteh-78">
          <mxGeometry x="380" width="50" height="30" as="geometry">
            <mxRectangle width="50" height="30" as="alternateBounds" />
          </mxGeometry>
        </mxCell>
        <mxCell id="1X2aNfDdhctrhxc6HK5E-140" style="shape=partialRectangle;html=1;whiteSpace=wrap;connectable=0;strokeColor=inherit;overflow=hidden;fillColor=none;top=0;left=0;bottom=0;right=0;pointerEvents=1;fontSize=16;" vertex="1" parent="H0fFJmVWNEBMFpfulteh-78">
          <mxGeometry x="430" width="50" height="30" as="geometry">
            <mxRectangle width="50" height="30" as="alternateBounds" />
          </mxGeometry>
        </mxCell>
        <mxCell id="1X2aNfDdhctrhxc6HK5E-146" style="shape=partialRectangle;html=1;whiteSpace=wrap;connectable=0;strokeColor=inherit;overflow=hidden;fillColor=none;top=0;left=0;bottom=0;right=0;pointerEvents=1;fontSize=16;" vertex="1" parent="H0fFJmVWNEBMFpfulteh-78">
          <mxGeometry x="480" width="50" height="30" as="geometry">
            <mxRectangle width="50" height="30" as="alternateBounds" />
          </mxGeometry>
        </mxCell>
        <mxCell id="1X2aNfDdhctrhxc6HK5E-153" style="shape=tableRow;horizontal=0;startSize=0;swimlaneHead=0;swimlaneBody=0;strokeColor=inherit;top=0;left=0;bottom=0;right=0;collapsible=0;dropTarget=0;fillColor=none;points=[[0,0.5],[1,0.5]];portConstraint=eastwest;fontSize=16;" vertex="1" parent="H0fFJmVWNEBMFpfulteh-69">
          <mxGeometry y="207" width="530" height="30" as="geometry" />
        </mxCell>
        <mxCell id="1X2aNfDdhctrhxc6HK5E-154" value="6. Maria" style="shape=partialRectangle;html=1;whiteSpace=wrap;connectable=0;strokeColor=inherit;overflow=hidden;fillColor=none;top=0;left=0;bottom=0;right=0;pointerEvents=1;fontSize=16;align=left;" vertex="1" parent="1X2aNfDdhctrhxc6HK5E-153">
          <mxGeometry width="84" height="30" as="geometry">
            <mxRectangle width="84" height="30" as="alternateBounds" />
          </mxGeometry>
        </mxCell>
        <mxCell id="1X2aNfDdhctrhxc6HK5E-155" style="shape=partialRectangle;html=1;whiteSpace=wrap;connectable=0;strokeColor=inherit;overflow=hidden;fillColor=none;top=0;left=0;bottom=0;right=0;pointerEvents=1;fontSize=16;" vertex="1" parent="1X2aNfDdhctrhxc6HK5E-153">
          <mxGeometry x="84" width="46" height="30" as="geometry">
            <mxRectangle width="46" height="30" as="alternateBounds" />
          </mxGeometry>
        </mxCell>
        <mxCell id="1X2aNfDdhctrhxc6HK5E-156" style="shape=partialRectangle;html=1;whiteSpace=wrap;connectable=0;strokeColor=inherit;overflow=hidden;fillColor=none;top=0;left=0;bottom=0;right=0;pointerEvents=1;fontSize=16;" vertex="1" parent="1X2aNfDdhctrhxc6HK5E-153">
          <mxGeometry x="130" width="50" height="30" as="geometry">
            <mxRectangle width="50" height="30" as="alternateBounds" />
          </mxGeometry>
        </mxCell>
        <mxCell id="1X2aNfDdhctrhxc6HK5E-157" style="shape=partialRectangle;html=1;whiteSpace=wrap;connectable=0;strokeColor=inherit;overflow=hidden;fillColor=none;top=0;left=0;bottom=0;right=0;pointerEvents=1;fontSize=16;" vertex="1" parent="1X2aNfDdhctrhxc6HK5E-153">
          <mxGeometry x="180" width="50" height="30" as="geometry">
            <mxRectangle width="50" height="30" as="alternateBounds" />
          </mxGeometry>
        </mxCell>
        <mxCell id="1X2aNfDdhctrhxc6HK5E-158" style="shape=partialRectangle;html=1;whiteSpace=wrap;connectable=0;strokeColor=inherit;overflow=hidden;fillColor=none;top=0;left=0;bottom=0;right=0;pointerEvents=1;fontSize=16;" vertex="1" parent="1X2aNfDdhctrhxc6HK5E-153">
          <mxGeometry x="230" width="50" height="30" as="geometry">
            <mxRectangle width="50" height="30" as="alternateBounds" />
          </mxGeometry>
        </mxCell>
        <mxCell id="1X2aNfDdhctrhxc6HK5E-159" style="shape=partialRectangle;html=1;whiteSpace=wrap;connectable=0;strokeColor=inherit;overflow=hidden;fillColor=none;top=0;left=0;bottom=0;right=0;pointerEvents=1;fontSize=16;" vertex="1" parent="1X2aNfDdhctrhxc6HK5E-153">
          <mxGeometry x="280" width="50" height="30" as="geometry">
            <mxRectangle width="50" height="30" as="alternateBounds" />
          </mxGeometry>
        </mxCell>
        <mxCell id="1X2aNfDdhctrhxc6HK5E-160" style="shape=partialRectangle;html=1;whiteSpace=wrap;connectable=0;strokeColor=inherit;overflow=hidden;fillColor=none;top=0;left=0;bottom=0;right=0;pointerEvents=1;fontSize=16;" vertex="1" parent="1X2aNfDdhctrhxc6HK5E-153">
          <mxGeometry x="330" width="50" height="30" as="geometry">
            <mxRectangle width="50" height="30" as="alternateBounds" />
          </mxGeometry>
        </mxCell>
        <mxCell id="1X2aNfDdhctrhxc6HK5E-162" style="shape=partialRectangle;html=1;whiteSpace=wrap;connectable=0;strokeColor=inherit;overflow=hidden;fillColor=none;top=0;left=0;bottom=0;right=0;pointerEvents=1;fontSize=16;" vertex="1" parent="1X2aNfDdhctrhxc6HK5E-153">
          <mxGeometry x="380" width="50" height="30" as="geometry">
            <mxRectangle width="50" height="30" as="alternateBounds" />
          </mxGeometry>
        </mxCell>
        <mxCell id="1X2aNfDdhctrhxc6HK5E-163" style="shape=partialRectangle;html=1;whiteSpace=wrap;connectable=0;strokeColor=inherit;overflow=hidden;fillColor=none;top=0;left=0;bottom=0;right=0;pointerEvents=1;fontSize=16;" vertex="1" parent="1X2aNfDdhctrhxc6HK5E-153">
          <mxGeometry x="430" width="50" height="30" as="geometry">
            <mxRectangle width="50" height="30" as="alternateBounds" />
          </mxGeometry>
        </mxCell>
        <mxCell id="1X2aNfDdhctrhxc6HK5E-164" style="shape=partialRectangle;html=1;whiteSpace=wrap;connectable=0;strokeColor=inherit;overflow=hidden;fillColor=none;top=0;left=0;bottom=0;right=0;pointerEvents=1;fontSize=16;" vertex="1" parent="1X2aNfDdhctrhxc6HK5E-153">
          <mxGeometry x="480" width="50" height="30" as="geometry">
            <mxRectangle width="50" height="30" as="alternateBounds" />
          </mxGeometry>
        </mxCell>
        <mxCell id="1X2aNfDdhctrhxc6HK5E-166" style="shape=tableRow;horizontal=0;startSize=0;swimlaneHead=0;swimlaneBody=0;strokeColor=inherit;top=0;left=0;bottom=0;right=0;collapsible=0;dropTarget=0;fillColor=none;points=[[0,0.5],[1,0.5]];portConstraint=eastwest;fontSize=16;" vertex="1" parent="H0fFJmVWNEBMFpfulteh-69">
          <mxGeometry y="237" width="530" height="30" as="geometry" />
        </mxCell>
        <mxCell id="1X2aNfDdhctrhxc6HK5E-167" value="7. Alice" style="shape=partialRectangle;html=1;whiteSpace=wrap;connectable=0;strokeColor=inherit;overflow=hidden;fillColor=none;top=0;left=0;bottom=0;right=0;pointerEvents=1;fontSize=16;align=left;" vertex="1" parent="1X2aNfDdhctrhxc6HK5E-166">
          <mxGeometry width="84" height="30" as="geometry">
            <mxRectangle width="84" height="30" as="alternateBounds" />
          </mxGeometry>
        </mxCell>
        <mxCell id="1X2aNfDdhctrhxc6HK5E-168" style="shape=partialRectangle;html=1;whiteSpace=wrap;connectable=0;strokeColor=inherit;overflow=hidden;fillColor=none;top=0;left=0;bottom=0;right=0;pointerEvents=1;fontSize=16;" vertex="1" parent="1X2aNfDdhctrhxc6HK5E-166">
          <mxGeometry x="84" width="46" height="30" as="geometry">
            <mxRectangle width="46" height="30" as="alternateBounds" />
          </mxGeometry>
        </mxCell>
        <mxCell id="1X2aNfDdhctrhxc6HK5E-169" style="shape=partialRectangle;html=1;whiteSpace=wrap;connectable=0;strokeColor=inherit;overflow=hidden;fillColor=none;top=0;left=0;bottom=0;right=0;pointerEvents=1;fontSize=16;" vertex="1" parent="1X2aNfDdhctrhxc6HK5E-166">
          <mxGeometry x="130" width="50" height="30" as="geometry">
            <mxRectangle width="50" height="30" as="alternateBounds" />
          </mxGeometry>
        </mxCell>
        <mxCell id="1X2aNfDdhctrhxc6HK5E-170" style="shape=partialRectangle;html=1;whiteSpace=wrap;connectable=0;strokeColor=inherit;overflow=hidden;fillColor=none;top=0;left=0;bottom=0;right=0;pointerEvents=1;fontSize=16;" vertex="1" parent="1X2aNfDdhctrhxc6HK5E-166">
          <mxGeometry x="180" width="50" height="30" as="geometry">
            <mxRectangle width="50" height="30" as="alternateBounds" />
          </mxGeometry>
        </mxCell>
        <mxCell id="1X2aNfDdhctrhxc6HK5E-171" style="shape=partialRectangle;html=1;whiteSpace=wrap;connectable=0;strokeColor=inherit;overflow=hidden;fillColor=none;top=0;left=0;bottom=0;right=0;pointerEvents=1;fontSize=16;" vertex="1" parent="1X2aNfDdhctrhxc6HK5E-166">
          <mxGeometry x="230" width="50" height="30" as="geometry">
            <mxRectangle width="50" height="30" as="alternateBounds" />
          </mxGeometry>
        </mxCell>
        <mxCell id="1X2aNfDdhctrhxc6HK5E-172" value="3I" style="shape=partialRectangle;html=1;whiteSpace=wrap;connectable=0;strokeColor=inherit;overflow=hidden;fillColor=none;top=0;left=0;bottom=0;right=0;pointerEvents=1;fontSize=16;" vertex="1" parent="1X2aNfDdhctrhxc6HK5E-166">
          <mxGeometry x="280" width="50" height="30" as="geometry">
            <mxRectangle width="50" height="30" as="alternateBounds" />
          </mxGeometry>
        </mxCell>
        <mxCell id="1X2aNfDdhctrhxc6HK5E-173" style="shape=partialRectangle;html=1;whiteSpace=wrap;connectable=0;strokeColor=inherit;overflow=hidden;fillColor=none;top=0;left=0;bottom=0;right=0;pointerEvents=1;fontSize=16;" vertex="1" parent="1X2aNfDdhctrhxc6HK5E-166">
          <mxGeometry x="330" width="50" height="30" as="geometry">
            <mxRectangle width="50" height="30" as="alternateBounds" />
          </mxGeometry>
        </mxCell>
        <mxCell id="1X2aNfDdhctrhxc6HK5E-175" style="shape=partialRectangle;html=1;whiteSpace=wrap;connectable=0;strokeColor=inherit;overflow=hidden;fillColor=none;top=0;left=0;bottom=0;right=0;pointerEvents=1;fontSize=16;" vertex="1" parent="1X2aNfDdhctrhxc6HK5E-166">
          <mxGeometry x="380" width="50" height="30" as="geometry">
            <mxRectangle width="50" height="30" as="alternateBounds" />
          </mxGeometry>
        </mxCell>
        <mxCell id="1X2aNfDdhctrhxc6HK5E-176" style="shape=partialRectangle;html=1;whiteSpace=wrap;connectable=0;strokeColor=inherit;overflow=hidden;fillColor=none;top=0;left=0;bottom=0;right=0;pointerEvents=1;fontSize=16;" vertex="1" parent="1X2aNfDdhctrhxc6HK5E-166">
          <mxGeometry x="430" width="50" height="30" as="geometry">
            <mxRectangle width="50" height="30" as="alternateBounds" />
          </mxGeometry>
        </mxCell>
        <mxCell id="1X2aNfDdhctrhxc6HK5E-177" style="shape=partialRectangle;html=1;whiteSpace=wrap;connectable=0;strokeColor=inherit;overflow=hidden;fillColor=none;top=0;left=0;bottom=0;right=0;pointerEvents=1;fontSize=16;" vertex="1" parent="1X2aNfDdhctrhxc6HK5E-166">
          <mxGeometry x="480" width="50" height="30" as="geometry">
            <mxRectangle width="50" height="30" as="alternateBounds" />
          </mxGeometry>
        </mxCell>
        <mxCell id="1X2aNfDdhctrhxc6HK5E-179" style="shape=tableRow;horizontal=0;startSize=0;swimlaneHead=0;swimlaneBody=0;strokeColor=inherit;top=0;left=0;bottom=0;right=0;collapsible=0;dropTarget=0;fillColor=none;points=[[0,0.5],[1,0.5]];portConstraint=eastwest;fontSize=16;" vertex="1" parent="H0fFJmVWNEBMFpfulteh-69">
          <mxGeometry y="267" width="530" height="30" as="geometry" />
        </mxCell>
        <mxCell id="1X2aNfDdhctrhxc6HK5E-180" value="8. Alex" style="shape=partialRectangle;html=1;whiteSpace=wrap;connectable=0;strokeColor=inherit;overflow=hidden;fillColor=none;top=0;left=0;bottom=0;right=0;pointerEvents=1;fontSize=16;align=left;" vertex="1" parent="1X2aNfDdhctrhxc6HK5E-179">
          <mxGeometry width="84" height="30" as="geometry">
            <mxRectangle width="84" height="30" as="alternateBounds" />
          </mxGeometry>
        </mxCell>
        <mxCell id="1X2aNfDdhctrhxc6HK5E-181" style="shape=partialRectangle;html=1;whiteSpace=wrap;connectable=0;strokeColor=inherit;overflow=hidden;fillColor=none;top=0;left=0;bottom=0;right=0;pointerEvents=1;fontSize=16;" vertex="1" parent="1X2aNfDdhctrhxc6HK5E-179">
          <mxGeometry x="84" width="46" height="30" as="geometry">
            <mxRectangle width="46" height="30" as="alternateBounds" />
          </mxGeometry>
        </mxCell>
        <mxCell id="1X2aNfDdhctrhxc6HK5E-182" value="6S" style="shape=partialRectangle;html=1;whiteSpace=wrap;connectable=0;strokeColor=inherit;overflow=hidden;fillColor=none;top=0;left=0;bottom=0;right=0;pointerEvents=1;fontSize=16;" vertex="1" parent="1X2aNfDdhctrhxc6HK5E-179">
          <mxGeometry x="130" width="50" height="30" as="geometry">
            <mxRectangle width="50" height="30" as="alternateBounds" />
          </mxGeometry>
        </mxCell>
        <mxCell id="1X2aNfDdhctrhxc6HK5E-183" style="shape=partialRectangle;html=1;whiteSpace=wrap;connectable=0;strokeColor=inherit;overflow=hidden;fillColor=none;top=0;left=0;bottom=0;right=0;pointerEvents=1;fontSize=16;" vertex="1" parent="1X2aNfDdhctrhxc6HK5E-179">
          <mxGeometry x="180" width="50" height="30" as="geometry">
            <mxRectangle width="50" height="30" as="alternateBounds" />
          </mxGeometry>
        </mxCell>
        <mxCell id="1X2aNfDdhctrhxc6HK5E-184" style="shape=partialRectangle;html=1;whiteSpace=wrap;connectable=0;strokeColor=inherit;overflow=hidden;fillColor=none;top=0;left=0;bottom=0;right=0;pointerEvents=1;fontSize=16;" vertex="1" parent="1X2aNfDdhctrhxc6HK5E-179">
          <mxGeometry x="230" width="50" height="30" as="geometry">
            <mxRectangle width="50" height="30" as="alternateBounds" />
          </mxGeometry>
        </mxCell>
        <mxCell id="1X2aNfDdhctrhxc6HK5E-185" style="shape=partialRectangle;html=1;whiteSpace=wrap;connectable=0;strokeColor=inherit;overflow=hidden;fillColor=none;top=0;left=0;bottom=0;right=0;pointerEvents=1;fontSize=16;" vertex="1" parent="1X2aNfDdhctrhxc6HK5E-179">
          <mxGeometry x="280" width="50" height="30" as="geometry">
            <mxRectangle width="50" height="30" as="alternateBounds" />
          </mxGeometry>
        </mxCell>
        <mxCell id="1X2aNfDdhctrhxc6HK5E-186" style="shape=partialRectangle;html=1;whiteSpace=wrap;connectable=0;strokeColor=inherit;overflow=hidden;fillColor=none;top=0;left=0;bottom=0;right=0;pointerEvents=1;fontSize=16;" vertex="1" parent="1X2aNfDdhctrhxc6HK5E-179">
          <mxGeometry x="330" width="50" height="30" as="geometry">
            <mxRectangle width="50" height="30" as="alternateBounds" />
          </mxGeometry>
        </mxCell>
        <mxCell id="1X2aNfDdhctrhxc6HK5E-188" style="shape=partialRectangle;html=1;whiteSpace=wrap;connectable=0;strokeColor=inherit;overflow=hidden;fillColor=none;top=0;left=0;bottom=0;right=0;pointerEvents=1;fontSize=16;" vertex="1" parent="1X2aNfDdhctrhxc6HK5E-179">
          <mxGeometry x="380" width="50" height="30" as="geometry">
            <mxRectangle width="50" height="30" as="alternateBounds" />
          </mxGeometry>
        </mxCell>
        <mxCell id="1X2aNfDdhctrhxc6HK5E-189" style="shape=partialRectangle;html=1;whiteSpace=wrap;connectable=0;strokeColor=inherit;overflow=hidden;fillColor=none;top=0;left=0;bottom=0;right=0;pointerEvents=1;fontSize=16;" vertex="1" parent="1X2aNfDdhctrhxc6HK5E-179">
          <mxGeometry x="430" width="50" height="30" as="geometry">
            <mxRectangle width="50" height="30" as="alternateBounds" />
          </mxGeometry>
        </mxCell>
        <mxCell id="1X2aNfDdhctrhxc6HK5E-190" style="shape=partialRectangle;html=1;whiteSpace=wrap;connectable=0;strokeColor=inherit;overflow=hidden;fillColor=none;top=0;left=0;bottom=0;right=0;pointerEvents=1;fontSize=16;" vertex="1" parent="1X2aNfDdhctrhxc6HK5E-179">
          <mxGeometry x="480" width="50" height="30" as="geometry">
            <mxRectangle width="50" height="30" as="alternateBounds" />
          </mxGeometry>
        </mxCell>
        <mxCell id="1X2aNfDdhctrhxc6HK5E-192" style="shape=tableRow;horizontal=0;startSize=0;swimlaneHead=0;swimlaneBody=0;strokeColor=inherit;top=0;left=0;bottom=0;right=0;collapsible=0;dropTarget=0;fillColor=none;points=[[0,0.5],[1,0.5]];portConstraint=eastwest;fontSize=16;" vertex="1" parent="H0fFJmVWNEBMFpfulteh-69">
          <mxGeometry y="297" width="530" height="30" as="geometry" />
        </mxCell>
        <mxCell id="1X2aNfDdhctrhxc6HK5E-193" value="9. Bob" style="shape=partialRectangle;html=1;whiteSpace=wrap;connectable=0;strokeColor=inherit;overflow=hidden;fillColor=none;top=0;left=0;bottom=0;right=0;pointerEvents=1;fontSize=16;align=left;" vertex="1" parent="1X2aNfDdhctrhxc6HK5E-192">
          <mxGeometry width="84" height="30" as="geometry">
            <mxRectangle width="84" height="30" as="alternateBounds" />
          </mxGeometry>
        </mxCell>
        <mxCell id="1X2aNfDdhctrhxc6HK5E-194" style="shape=partialRectangle;html=1;whiteSpace=wrap;connectable=0;strokeColor=inherit;overflow=hidden;fillColor=none;top=0;left=0;bottom=0;right=0;pointerEvents=1;fontSize=16;" vertex="1" parent="1X2aNfDdhctrhxc6HK5E-192">
          <mxGeometry x="84" width="46" height="30" as="geometry">
            <mxRectangle width="46" height="30" as="alternateBounds" />
          </mxGeometry>
        </mxCell>
        <mxCell id="1X2aNfDdhctrhxc6HK5E-195" style="shape=partialRectangle;html=1;whiteSpace=wrap;connectable=0;strokeColor=inherit;overflow=hidden;fillColor=none;top=0;left=0;bottom=0;right=0;pointerEvents=1;fontSize=16;" vertex="1" parent="1X2aNfDdhctrhxc6HK5E-192">
          <mxGeometry x="130" width="50" height="30" as="geometry">
            <mxRectangle width="50" height="30" as="alternateBounds" />
          </mxGeometry>
        </mxCell>
        <mxCell id="1X2aNfDdhctrhxc6HK5E-196" style="shape=partialRectangle;html=1;whiteSpace=wrap;connectable=0;strokeColor=inherit;overflow=hidden;fillColor=none;top=0;left=0;bottom=0;right=0;pointerEvents=1;fontSize=16;" vertex="1" parent="1X2aNfDdhctrhxc6HK5E-192">
          <mxGeometry x="180" width="50" height="30" as="geometry">
            <mxRectangle width="50" height="30" as="alternateBounds" />
          </mxGeometry>
        </mxCell>
        <mxCell id="1X2aNfDdhctrhxc6HK5E-197" style="shape=partialRectangle;html=1;whiteSpace=wrap;connectable=0;strokeColor=inherit;overflow=hidden;fillColor=none;top=0;left=0;bottom=0;right=0;pointerEvents=1;fontSize=16;" vertex="1" parent="1X2aNfDdhctrhxc6HK5E-192">
          <mxGeometry x="230" width="50" height="30" as="geometry">
            <mxRectangle width="50" height="30" as="alternateBounds" />
          </mxGeometry>
        </mxCell>
        <mxCell id="1X2aNfDdhctrhxc6HK5E-198" style="shape=partialRectangle;html=1;whiteSpace=wrap;connectable=0;strokeColor=inherit;overflow=hidden;fillColor=none;top=0;left=0;bottom=0;right=0;pointerEvents=1;fontSize=16;" vertex="1" parent="1X2aNfDdhctrhxc6HK5E-192">
          <mxGeometry x="280" width="50" height="30" as="geometry">
            <mxRectangle width="50" height="30" as="alternateBounds" />
          </mxGeometry>
        </mxCell>
        <mxCell id="1X2aNfDdhctrhxc6HK5E-199" style="shape=partialRectangle;html=1;whiteSpace=wrap;connectable=0;strokeColor=inherit;overflow=hidden;fillColor=none;top=0;left=0;bottom=0;right=0;pointerEvents=1;fontSize=16;" vertex="1" parent="1X2aNfDdhctrhxc6HK5E-192">
          <mxGeometry x="330" width="50" height="30" as="geometry">
            <mxRectangle width="50" height="30" as="alternateBounds" />
          </mxGeometry>
        </mxCell>
        <mxCell id="1X2aNfDdhctrhxc6HK5E-201" style="shape=partialRectangle;html=1;whiteSpace=wrap;connectable=0;strokeColor=inherit;overflow=hidden;fillColor=none;top=0;left=0;bottom=0;right=0;pointerEvents=1;fontSize=16;" vertex="1" parent="1X2aNfDdhctrhxc6HK5E-192">
          <mxGeometry x="380" width="50" height="30" as="geometry">
            <mxRectangle width="50" height="30" as="alternateBounds" />
          </mxGeometry>
        </mxCell>
        <mxCell id="1X2aNfDdhctrhxc6HK5E-202" style="shape=partialRectangle;html=1;whiteSpace=wrap;connectable=0;strokeColor=inherit;overflow=hidden;fillColor=none;top=0;left=0;bottom=0;right=0;pointerEvents=1;fontSize=16;" vertex="1" parent="1X2aNfDdhctrhxc6HK5E-192">
          <mxGeometry x="430" width="50" height="30" as="geometry">
            <mxRectangle width="50" height="30" as="alternateBounds" />
          </mxGeometry>
        </mxCell>
        <mxCell id="1X2aNfDdhctrhxc6HK5E-203" style="shape=partialRectangle;html=1;whiteSpace=wrap;connectable=0;strokeColor=inherit;overflow=hidden;fillColor=none;top=0;left=0;bottom=0;right=0;pointerEvents=1;fontSize=16;" vertex="1" parent="1X2aNfDdhctrhxc6HK5E-192">
          <mxGeometry x="480" width="50" height="30" as="geometry">
            <mxRectangle width="50" height="30" as="alternateBounds" />
          </mxGeometry>
        </mxCell>
        <mxCell id="H0fFJmVWNEBMFpfulteh-121" value="" style="group" vertex="1" connectable="0" parent="1">
          <mxGeometry x="678" y="20" width="200" height="220" as="geometry" />
        </mxCell>
        <mxCell id="H0fFJmVWNEBMFpfulteh-119" value="" style="rounded=0;whiteSpace=wrap;html=1;" vertex="1" parent="H0fFJmVWNEBMFpfulteh-121">
          <mxGeometry x="10" y="30" width="190" height="190" as="geometry" />
        </mxCell>
        <mxCell id="H0fFJmVWNEBMFpfulteh-116" value="Person: 1. John" style="text;html=1;strokeColor=none;fillColor=none;align=left;verticalAlign=middle;whiteSpace=wrap;rounded=0;" vertex="1" parent="H0fFJmVWNEBMFpfulteh-121">
          <mxGeometry x="14" y="136" width="110" height="20" as="geometry" />
        </mxCell>
        <mxCell id="H0fFJmVWNEBMFpfulteh-41" value="4I" style="rounded=0;whiteSpace=wrap;html=1;" vertex="1" parent="H0fFJmVWNEBMFpfulteh-121">
          <mxGeometry x="60" y="170" width="130" height="30" as="geometry" />
        </mxCell>
        <mxCell id="H0fFJmVWNEBMFpfulteh-42" value="Value" style="text;html=1;strokeColor=none;fillColor=none;align=center;verticalAlign=middle;whiteSpace=wrap;rounded=0;" vertex="1" parent="H0fFJmVWNEBMFpfulteh-121">
          <mxGeometry y="170" width="60" height="30" as="geometry" />
        </mxCell>
        <mxCell id="H0fFJmVWNEBMFpfulteh-34" value="Jo 4I" style="rounded=0;whiteSpace=wrap;html=1;" vertex="1" parent="H0fFJmVWNEBMFpfulteh-121">
          <mxGeometry x="60" y="90" width="130" height="30" as="geometry" />
        </mxCell>
        <mxCell id="H0fFJmVWNEBMFpfulteh-35" value="Input" style="text;html=1;strokeColor=none;fillColor=none;align=center;verticalAlign=middle;whiteSpace=wrap;rounded=0;" vertex="1" parent="H0fFJmVWNEBMFpfulteh-121">
          <mxGeometry y="90" width="60" height="30" as="geometry" />
        </mxCell>
        <mxCell id="H0fFJmVWNEBMFpfulteh-39" value="03.01" style="rounded=0;whiteSpace=wrap;html=1;" vertex="1" parent="H0fFJmVWNEBMFpfulteh-121">
          <mxGeometry x="60" y="46" width="130" height="30" as="geometry" />
        </mxCell>
        <mxCell id="H0fFJmVWNEBMFpfulteh-40" value="Date" style="text;html=1;strokeColor=none;fillColor=none;align=center;verticalAlign=middle;whiteSpace=wrap;rounded=0;" vertex="1" parent="H0fFJmVWNEBMFpfulteh-121">
          <mxGeometry y="46" width="60" height="30" as="geometry" />
        </mxCell>
        <mxCell id="H0fFJmVWNEBMFpfulteh-120" value="Fill in data" style="rounded=0;whiteSpace=wrap;html=1;" vertex="1" parent="H0fFJmVWNEBMFpfulteh-121">
          <mxGeometry x="10" width="190" height="30" as="geometry" />
        </mxCell>
        <mxCell id="1X2aNfDdhctrhxc6HK5E-14" value="" style="verticalLabelPosition=bottom;shadow=0;dashed=0;align=center;html=1;verticalAlign=top;strokeWidth=1;shape=mxgraph.mockup.navigation.scrollBar;strokeColor=#999999;barPos=96.761;fillColor2=#99ddff;strokeColor2=none;direction=north;" vertex="1" parent="1">
          <mxGeometry x="1143" y="433" width="20" height="327" as="geometry" />
        </mxCell>
        <mxCell id="1X2aNfDdhctrhxc6HK5E-15" value="" style="verticalLabelPosition=bottom;shadow=0;dashed=0;align=center;html=1;verticalAlign=top;strokeWidth=1;shape=mxgraph.mockup.navigation.scrollBar;strokeColor=#999999;barPos=0;fillColor2=#99ddff;strokeColor2=none;" vertex="1" parent="1">
          <mxGeometry x="620" y="760" width="530" height="20" as="geometry" />
        </mxCell>
        <mxCell id="1X2aNfDdhctrhxc6HK5E-16" value="" style="rounded=0;whiteSpace=wrap;html=1;fillColor=#008a00;fontColor=#ffffff;strokeColor=#005700;" vertex="1" parent="1">
          <mxGeometry x="613" y="420" width="550" height="13" as="geometry" />
        </mxCell>
        <mxCell id="1X2aNfDdhctrhxc6HK5E-18" value="" style="shape=table;startSize=0;container=1;collapsible=0;childLayout=tableLayout;fontSize=16;fillColor=#f5f5f5;gradientColor=#b3b3b3;strokeColor=#666666;" vertex="1" parent="1">
          <mxGeometry x="943" y="390" width="220" height="30" as="geometry" />
        </mxCell>
        <mxCell id="1X2aNfDdhctrhxc6HK5E-19" value="" style="shape=tableRow;horizontal=0;startSize=0;swimlaneHead=0;swimlaneBody=0;strokeColor=inherit;top=0;left=0;bottom=0;right=0;collapsible=0;dropTarget=0;fillColor=none;points=[[0,0.5],[1,0.5]];portConstraint=eastwest;fontSize=16;" vertex="1" parent="1X2aNfDdhctrhxc6HK5E-18">
          <mxGeometry width="220" height="30" as="geometry" />
        </mxCell>
        <mxCell id="1X2aNfDdhctrhxc6HK5E-31" value="&amp;lt;&amp;lt;" style="shape=partialRectangle;html=1;whiteSpace=wrap;connectable=0;strokeColor=#6c8ebf;overflow=hidden;fillColor=#dae8fc;top=0;left=0;bottom=0;right=0;pointerEvents=1;fontSize=16;gradientColor=#7ea6e0;" vertex="1" parent="1X2aNfDdhctrhxc6HK5E-19">
          <mxGeometry width="53" height="30" as="geometry">
            <mxRectangle width="53" height="30" as="alternateBounds" />
          </mxGeometry>
        </mxCell>
        <mxCell id="1X2aNfDdhctrhxc6HK5E-32" value="JANUARY 2023" style="shape=partialRectangle;html=1;whiteSpace=wrap;connectable=0;strokeColor=inherit;overflow=hidden;fillColor=none;top=0;left=0;bottom=0;right=0;pointerEvents=1;fontSize=16;" vertex="1" parent="1X2aNfDdhctrhxc6HK5E-19">
          <mxGeometry x="53" width="125" height="30" as="geometry">
            <mxRectangle width="125" height="30" as="alternateBounds" />
          </mxGeometry>
        </mxCell>
        <mxCell id="1X2aNfDdhctrhxc6HK5E-33" value="&amp;gt;&amp;gt;" style="shape=partialRectangle;html=1;whiteSpace=wrap;connectable=0;strokeColor=#6c8ebf;overflow=hidden;fillColor=#dae8fc;top=0;left=0;bottom=0;right=0;pointerEvents=1;fontSize=16;gradientColor=#7ea6e0;" vertex="1" parent="1X2aNfDdhctrhxc6HK5E-19">
          <mxGeometry x="178" width="42" height="30" as="geometry">
            <mxRectangle width="42" height="30" as="alternateBounds" />
          </mxGeometry>
        </mxCell>
        <mxCell id="1X2aNfDdhctrhxc6HK5E-110" value="" style="shape=table;startSize=0;container=1;collapsible=0;childLayout=tableLayout;fontSize=16;fillColor=#f5f5f5;gradientColor=#b3b3b3;strokeColor=#666666;" vertex="1" parent="1">
          <mxGeometry x="613" y="390" width="330" height="30" as="geometry" />
        </mxCell>
        <mxCell id="1X2aNfDdhctrhxc6HK5E-111" value="" style="shape=tableRow;horizontal=0;startSize=0;swimlaneHead=0;swimlaneBody=0;strokeColor=inherit;top=0;left=0;bottom=0;right=0;collapsible=0;dropTarget=0;fillColor=none;points=[[0,0.5],[1,0.5]];portConstraint=eastwest;fontSize=16;" vertex="1" parent="1X2aNfDdhctrhxc6HK5E-110">
          <mxGeometry width="330" height="30" as="geometry" />
        </mxCell>
        <mxCell id="1X2aNfDdhctrhxc6HK5E-112" value="Properties" style="shape=partialRectangle;html=1;whiteSpace=wrap;connectable=0;strokeColor=inherit;overflow=hidden;fillColor=none;top=0;left=0;bottom=0;right=0;pointerEvents=1;fontSize=16;" vertex="1" parent="1X2aNfDdhctrhxc6HK5E-111">
          <mxGeometry width="109" height="30" as="geometry">
            <mxRectangle width="109" height="30" as="alternateBounds" />
          </mxGeometry>
        </mxCell>
        <mxCell id="1X2aNfDdhctrhxc6HK5E-113" value="Fill in data" style="shape=partialRectangle;html=1;whiteSpace=wrap;connectable=0;strokeColor=inherit;overflow=hidden;fillColor=none;top=0;left=0;bottom=0;right=0;pointerEvents=1;fontSize=16;" vertex="1" parent="1X2aNfDdhctrhxc6HK5E-111">
          <mxGeometry x="109" width="112" height="30" as="geometry">
            <mxRectangle width="112" height="30" as="alternateBounds" />
          </mxGeometry>
        </mxCell>
        <mxCell id="1X2aNfDdhctrhxc6HK5E-114" value="Export report" style="shape=partialRectangle;html=1;whiteSpace=wrap;connectable=0;strokeColor=inherit;overflow=hidden;fillColor=none;top=0;left=0;bottom=0;right=0;pointerEvents=1;fontSize=16;" vertex="1" parent="1X2aNfDdhctrhxc6HK5E-111">
          <mxGeometry x="221" width="109" height="30" as="geometry">
            <mxRectangle width="109" height="30" as="alternateBounds" />
          </mxGeometry>
        </mxCell>
        <mxCell id="1X2aNfDdhctrhxc6HK5E-253" value="" style="endArrow=classic;html=1;rounded=0;exitX=0.515;exitY=-0.333;exitDx=0;exitDy=0;exitPerimeter=0;entryX=0.5;entryY=1;entryDx=0;entryDy=0;" edge="1" parent="1" source="1X2aNfDdhctrhxc6HK5E-111" target="H0fFJmVWNEBMFpfulteh-119">
          <mxGeometry width="50" height="50" relative="1" as="geometry">
            <mxPoint x="793" y="260" as="sourcePoint" />
            <mxPoint x="843" y="210" as="targetPoint" />
          </mxGeometry>
        </mxCell>
        <mxCell id="1X2aNfDdhctrhxc6HK5E-254" value="" style="endArrow=classic;html=1;rounded=0;entryX=0.5;entryY=1;entryDx=0;entryDy=0;exitX=0.156;exitY=-0.12;exitDx=0;exitDy=0;exitPerimeter=0;" edge="1" parent="1" source="1X2aNfDdhctrhxc6HK5E-111" target="1X2aNfDdhctrhxc6HK5E-224">
          <mxGeometry width="50" height="50" relative="1" as="geometry">
            <mxPoint x="303" y="390" as="sourcePoint" />
            <mxPoint x="353" y="340" as="targetPoint" />
          </mxGeometry>
        </mxCell>
        <mxCell id="1X2aNfDdhctrhxc6HK5E-255" value="MENU" style="swimlane;fontStyle=0;childLayout=stackLayout;horizontal=1;startSize=30;horizontalStack=0;resizeParent=1;resizeParentMax=0;resizeLast=0;collapsible=1;marginBottom=0;whiteSpace=wrap;html=1;" vertex="1" parent="1">
          <mxGeometry x="30" y="420" width="140" height="150" as="geometry" />
        </mxCell>
        <mxCell id="1X2aNfDdhctrhxc6HK5E-256" value="Edit table" style="text;strokeColor=#666666;fillColor=#f5f5f5;align=left;verticalAlign=middle;spacingLeft=4;spacingRight=4;overflow=hidden;points=[[0,0.5],[1,0.5]];portConstraint=eastwest;rotatable=0;whiteSpace=wrap;html=1;gradientColor=#b3b3b3;" vertex="1" parent="1X2aNfDdhctrhxc6HK5E-255">
          <mxGeometry y="30" width="140" height="30" as="geometry" />
        </mxCell>
        <mxCell id="1X2aNfDdhctrhxc6HK5E-257" value="Edit students" style="text;strokeColor=#666666;fillColor=#f5f5f5;align=left;verticalAlign=middle;spacingLeft=4;spacingRight=4;overflow=hidden;points=[[0,0.5],[1,0.5]];portConstraint=eastwest;rotatable=0;whiteSpace=wrap;html=1;gradientColor=#b3b3b3;" vertex="1" parent="1X2aNfDdhctrhxc6HK5E-255">
          <mxGeometry y="60" width="140" height="30" as="geometry" />
        </mxCell>
        <mxCell id="1X2aNfDdhctrhxc6HK5E-258" value="Edit classes" style="text;strokeColor=#666666;fillColor=#f5f5f5;align=left;verticalAlign=middle;spacingLeft=4;spacingRight=4;overflow=hidden;points=[[0,0.5],[1,0.5]];portConstraint=eastwest;rotatable=0;whiteSpace=wrap;html=1;gradientColor=#b3b3b3;" vertex="1" parent="1X2aNfDdhctrhxc6HK5E-255">
          <mxGeometry y="90" width="140" height="30" as="geometry" />
        </mxCell>
        <mxCell id="1X2aNfDdhctrhxc6HK5E-274" value="Edit day overrides" style="text;strokeColor=#666666;fillColor=#f5f5f5;align=left;verticalAlign=middle;spacingLeft=4;spacingRight=4;overflow=hidden;points=[[0,0.5],[1,0.5]];portConstraint=eastwest;rotatable=0;whiteSpace=wrap;html=1;gradientColor=#b3b3b3;" vertex="1" parent="1X2aNfDdhctrhxc6HK5E-255">
          <mxGeometry y="120" width="140" height="30" as="geometry" />
        </mxCell>
        <mxCell id="1X2aNfDdhctrhxc6HK5E-262" value="" style="group" vertex="1" connectable="0" parent="1">
          <mxGeometry x="393" y="80" width="260" height="130" as="geometry" />
        </mxCell>
        <mxCell id="1X2aNfDdhctrhxc6HK5E-224" value="" style="rounded=0;whiteSpace=wrap;html=1;" vertex="1" parent="1X2aNfDdhctrhxc6HK5E-262">
          <mxGeometry y="39" width="260" height="91" as="geometry" />
        </mxCell>
        <mxCell id="1X2aNfDdhctrhxc6HK5E-232" value="Properties" style="rounded=0;whiteSpace=wrap;html=1;" vertex="1" parent="1X2aNfDdhctrhxc6HK5E-262">
          <mxGeometry width="260" height="39" as="geometry" />
        </mxCell>
        <mxCell id="1X2aNfDdhctrhxc6HK5E-259" value="Class" style="text;html=1;strokeColor=none;fillColor=none;align=center;verticalAlign=middle;whiteSpace=wrap;rounded=0;" vertex="1" parent="1X2aNfDdhctrhxc6HK5E-262">
          <mxGeometry x="8.75" y="56.29999999999998" width="93" height="18.2" as="geometry" />
        </mxCell>
        <mxCell id="1X2aNfDdhctrhxc6HK5E-260" value="B-201" style="rounded=0;whiteSpace=wrap;html=1;" vertex="1" parent="1X2aNfDdhctrhxc6HK5E-262">
          <mxGeometry x="114.75" y="54.099999999999994" width="136.5" height="21.8" as="geometry" />
        </mxCell>
        <mxCell id="1X2aNfDdhctrhxc6HK5E-231" value="Principal&#39;s name" style="text;html=1;strokeColor=none;fillColor=none;align=center;verticalAlign=middle;whiteSpace=wrap;rounded=0;" vertex="1" parent="1X2aNfDdhctrhxc6HK5E-262">
          <mxGeometry x="7" y="93.19999999999999" width="93" height="18.2" as="geometry" />
        </mxCell>
        <mxCell id="1X2aNfDdhctrhxc6HK5E-230" value="Giovani Giorgio" style="rounded=0;whiteSpace=wrap;html=1;" vertex="1" parent="1X2aNfDdhctrhxc6HK5E-262">
          <mxGeometry x="113" y="91" width="136.5" height="21.8" as="geometry" />
        </mxCell>
      </root>
    </mxGraphModel>
  </diagram>
  <diagram id="azAIqSntz5r_LsD6BL7M" name="Database">
    <mxGraphModel dx="874" dy="572" grid="1" gridSize="10" guides="1" tooltips="1" connect="1" arrows="1" fold="1" page="1" pageScale="1" pageWidth="1169" pageHeight="827" math="0" shadow="0">
      <root>
        <mxCell id="0" />
        <mxCell id="1" parent="0" />
        <mxCell id="6YLx1meWDSYiXDpxmrMB-1" value="" style="swimlane;fontStyle=0;childLayout=stackLayout;horizontal=1;startSize=30;horizontalStack=0;resizeParent=1;resizeParentMax=0;resizeLast=0;collapsible=1;marginBottom=0;whiteSpace=wrap;html=1;" vertex="1" parent="1">
          <mxGeometry x="60" y="30" width="140" height="120" as="geometry" />
        </mxCell>
        <mxCell id="6YLx1meWDSYiXDpxmrMB-2" value="Item 1" style="text;strokeColor=none;fillColor=none;align=left;verticalAlign=middle;spacingLeft=4;spacingRight=4;overflow=hidden;points=[[0,0.5],[1,0.5]];portConstraint=eastwest;rotatable=0;whiteSpace=wrap;html=1;" vertex="1" parent="6YLx1meWDSYiXDpxmrMB-1">
          <mxGeometry y="30" width="140" height="30" as="geometry" />
        </mxCell>
        <mxCell id="6YLx1meWDSYiXDpxmrMB-3" value="Item 2" style="text;strokeColor=none;fillColor=none;align=left;verticalAlign=middle;spacingLeft=4;spacingRight=4;overflow=hidden;points=[[0,0.5],[1,0.5]];portConstraint=eastwest;rotatable=0;whiteSpace=wrap;html=1;" vertex="1" parent="6YLx1meWDSYiXDpxmrMB-1">
          <mxGeometry y="60" width="140" height="30" as="geometry" />
        </mxCell>
        <mxCell id="6YLx1meWDSYiXDpxmrMB-4" value="Item 3" style="text;strokeColor=none;fillColor=none;align=left;verticalAlign=middle;spacingLeft=4;spacingRight=4;overflow=hidden;points=[[0,0.5],[1,0.5]];portConstraint=eastwest;rotatable=0;whiteSpace=wrap;html=1;" vertex="1" parent="6YLx1meWDSYiXDpxmrMB-1">
          <mxGeometry y="90" width="140" height="30" as="geometry" />
        </mxCell>
      </root>
    </mxGraphModel>
  </diagram>
</mxfile>
